<svg id="Layer_1" data-name="Layer 1" xmlns="http://www.w3.org/2000/svg" viewBox="0 0 100 27.8"><defs><style>.cls-1{fill:#fff;}.cls-2{fill:#3b3b3d;}.cls-3{fill:#f28f20;}.cls-4{fill:#222121;}.cls-5{fill:#f7f8f9;}.cls-6{fill:#414143;}</style></defs><title>logo-white2</title><circle class="cls-1" cx="13.9" cy="13.9" r="13.9"/><path class="cls-2" d="M16.9,20.1a4.12,4.12,0,0,1-3.2,2.7s4.3,2.3,4.7,3.3c0,0-.8-2.5,1-3.7s1.3-1.8,1.8-2.4a2.45,2.45,0,0,1,2.4-1.2c1.6.1.9-1.8.3-1.7,0,0-.2-.1,0-.4,0,0,.4-.6-.1-.5h-.1l.1-.3s.3-.5-.4-.3H23l-.2-.1v-.9s.1-.3-.3-.3H21.3s-.5-.1-.6-.3-1.3-1.9-2.8-2l-.4-1.1h0V15Z" transform="translate(-3 -4)"/><path class="cls-3" d="M16.6,20.2s-.6,1.8-3,0c0,0-.8,2.3-2.4-.1a1.05,1.05,0,0,1-.7-1.6s-1.6-1.2.3-1.9c0,0-.1-.7.8-.6,0,0-1.1-1.7.5-2h0a.71.71,0,0,1,1-.7s.7.1.9-.1-.2-1.2,1.2-1c0,0,.1-1.2.5-1.5l.1,4.5v4.4Z" transform="translate(-3 -4)"/><circle class="cls-1" cx="13.9" cy="13.6" r="2.5"/><circle class="cls-4" cx="13.9" cy="13.6" r="1.9"/><circle class="cls-5" cx="13.9" cy="13.6" r="1.4"/><circle class="cls-3" cx="13.9" cy="13.6" r="1.1"/><circle class="cls-1" cx="9.5" cy="11.6" r="0.6"/><circle class="cls-1" cx="10.9" cy="10.3" r="0.4"/><circle class="cls-1" cx="10.7" cy="12.7" r="0.3"/><circle class="cls-1" cx="9.8" cy="13.9" r="0.3"/><circle class="cls-1" cx="12.3" cy="10.6" r="0.3"/><circle class="cls-3" cx="8.4" cy="9.6" r="0.3"/><circle class="cls-3" cx="5.6" cy="10.6" r="0.4"/><circle class="cls-3" cx="7.1" cy="10.1" r="0.3"/><circle class="cls-3" cx="7.4" cy="11.6" r="0.3"/><circle class="cls-3" cx="8.9" cy="8.4" r="0.3"/><path class="cls-6" d="M21.2,14.3a1.39,1.39,0,0,0,.7-.5s-.5.7-.7.6S21.2,14.3,21.2,14.3Z" transform="translate(-3 -4)"/><rect class="cls-2" x="34.1" y="0.1" width="0.4" height="26.3"/><path class="cls-2" d="M54.8,11.6c-.1.1-.1.2-.2.2s-.1.1-.2.1a.37.37,0,0,1-.3-.1,2.19,2.19,0,0,0-.5-.3,4.88,4.88,0,0,0-.7-.3,3.08,3.08,0,0,0-1-.1,3,3,0,0,0-1,.2,1.61,1.61,0,0,0-.7.4,2.09,2.09,0,0,0-.4.6,2,2,0,0,0-.1.8,1.61,1.61,0,0,0,.3.9,4.35,4.35,0,0,0,.7.6,3.55,3.55,0,0,0,.9.4,4.87,4.87,0,0,1,1.1.4c.4.1.7.3,1.1.4a3.49,3.49,0,0,1,.9.6,2.18,2.18,0,0,1,.7.9,2.5,2.5,0,0,1,.3,1.3,4,4,0,0,1-.3,1.5,3.6,3.6,0,0,1-.8,1.2,5.67,5.67,0,0,1-1.3.8,4.67,4.67,0,0,1-1.7.3,5.38,5.38,0,0,1-2.2-.4,5.23,5.23,0,0,1-1.7-1.2l.5-.8c0-.1.1-.1.2-.2s.1-.1.2-.1a.37.37,0,0,1,.3.1c.1.1.2.1.3.2s.3.2.4.3.3.2.5.3a1.45,1.45,0,0,0,.7.2,2.2,2.2,0,0,0,.8.1,4.25,4.25,0,0,0,1.1-.2,2.18,2.18,0,0,0,.8-.5,1.79,1.79,0,0,0,.5-.7,2.92,2.92,0,0,0,.2-.9,1.22,1.22,0,0,0-.3-.9,4.35,4.35,0,0,0-.7-.6,3.55,3.55,0,0,0-.9-.4c-.3-.1-.7-.2-1.1-.3s-.7-.3-1.1-.4a3.49,3.49,0,0,1-.9-.6,3.11,3.11,0,0,1-.7-.9,2.9,2.9,0,0,1-.3-1.4,3.08,3.08,0,0,1,.3-1.3,4.13,4.13,0,0,1,.7-1.1,3.6,3.6,0,0,1,1.2-.8A4.15,4.15,0,0,1,52,9.6a5.82,5.82,0,0,1,1.9.3,3.77,3.77,0,0,1,1.5.9Z" transform="translate(-3 -4)"/><path class="cls-2" d="M57.3,22V9.3h1.5v5.1a4.7,4.7,0,0,1,1.2-.9,4.19,4.19,0,0,1,1.6-.4,5.07,5.07,0,0,1,1.3.2,2.18,2.18,0,0,1,.9.7,8.79,8.79,0,0,1,.6,1,5.85,5.85,0,0,1,.2,1.3V22H63V16.5a2.07,2.07,0,0,0-.5-1.5,1.62,1.62,0,0,0-1.4-.5,2.77,2.77,0,0,0-1.3.3,3.13,3.13,0,0,0-1.1.9V22Z" transform="translate(-3 -4)"/><path class="cls-2" d="M72.4,22c-.1,0-.3,0-.3-.1s-.1-.1-.2-.3l-.2-.8c-.2.2-.5.4-.7.6a1.61,1.61,0,0,1-.7.4,6.89,6.89,0,0,1-.8.3,2.77,2.77,0,0,1-.9.1,3.4,3.4,0,0,1-1-.1,2,2,0,0,1-.8-.4,1.79,1.79,0,0,1-.5-.7,3,3,0,0,1-.2-1,1.93,1.93,0,0,1,.3-1,2.36,2.36,0,0,1,.9-.8,10.72,10.72,0,0,1,1.7-.6,15.56,15.56,0,0,1,2.5-.3v-.7a2.08,2.08,0,0,0-.4-1.5,1.73,1.73,0,0,0-1.3-.5,2.22,2.22,0,0,0-.9.1,4.88,4.88,0,0,0-.7.3c-.2.1-.3.2-.5.3a.6.6,0,0,1-.4.1.37.37,0,0,1-.3-.1c.1-.2,0-.2,0-.3l-.3-.5a3.91,3.91,0,0,1,1.6-1,5.66,5.66,0,0,1,1.8-.3,5.07,5.07,0,0,1,1.3.2,3.59,3.59,0,0,1,1,.7,2.07,2.07,0,0,1,.6,1,5.85,5.85,0,0,1,.2,1.3V22Zm-3.2-1a1.48,1.48,0,0,0,.7-.1c.2-.1.4-.1.6-.2a2.09,2.09,0,0,0,.6-.4,1.21,1.21,0,0,0,.5-.5V18a9,9,0,0,0-1.8.2,10.38,10.38,0,0,0-1.2.3,1.79,1.79,0,0,0-.7.5,1.45,1.45,0,0,0-.2.7,1.27,1.27,0,0,0,.1.6,1.38,1.38,0,0,0,.3.4.76.76,0,0,0,.5.2A1.27,1.27,0,0,0,69.2,21Z" transform="translate(-3 -4)"/><path class="cls-2" d="M75.4,22V13.3h.9c.2,0,.4.1.4.3l.1.9a5.24,5.24,0,0,1,1.1-1,2.3,2.3,0,0,1,1.4-.4,2,2,0,0,1,1.4.5,2.87,2.87,0,0,1,.8,1.3,2.18,2.18,0,0,1,.5-.8,4.35,4.35,0,0,1,.7-.6,1.91,1.91,0,0,1,.8-.3c.3,0,.6-.1.8-.1a3.73,3.73,0,0,1,1.2.2,2,2,0,0,1,.9.6,8.79,8.79,0,0,1,.6,1,5.9,5.9,0,0,1,.2,1.4V22H85.7V16.5a2.08,2.08,0,0,0-.4-1.5,1.43,1.43,0,0,0-1.3-.5,1.48,1.48,0,0,0-.7.1,1.84,1.84,0,0,0-1,1,2.92,2.92,0,0,0-.2.9V22H80.6V16.5a2.54,2.54,0,0,0-.4-1.6,1.66,1.66,0,0,0-1.2-.5,1.69,1.69,0,0,0-1,.3,6.47,6.47,0,0,0-.9.8V22Z" transform="translate(-3 -4)"/><path class="cls-2" d="M95.1,22c-.1,0-.3,0-.3-.1s-.1-.1-.2-.3l-.2-.8c-.2.2-.5.4-.7.6a1.61,1.61,0,0,1-.7.4,6.89,6.89,0,0,1-.8.3,2.77,2.77,0,0,1-.9.1,3.4,3.4,0,0,1-1-.1,2,2,0,0,1-.8-.4A1.79,1.79,0,0,1,89,21a3,3,0,0,1-.2-1,1.93,1.93,0,0,1,.3-1,2.36,2.36,0,0,1,.9-.8,10.72,10.72,0,0,1,1.7-.6,15.56,15.56,0,0,1,2.5-.3v-.7a2.08,2.08,0,0,0-.4-1.5,1.73,1.73,0,0,0-1.3-.5,2.22,2.22,0,0,0-.9.1,4.88,4.88,0,0,0-.7.3c-.2.1-.3.2-.5.3a.6.6,0,0,1-.4.1.37.37,0,0,1-.3-.1l-.2-.2-.3-.5a3.91,3.91,0,0,1,1.6-1,5.66,5.66,0,0,1,1.8-.3,5.07,5.07,0,0,1,1.3.2,3.59,3.59,0,0,1,1,.7,2.07,2.07,0,0,1,.6,1,5.85,5.85,0,0,1,.2,1.3V22Zm-3.3-1a1.48,1.48,0,0,0,.7-.1c.2-.1.4-.1.6-.2a2.09,2.09,0,0,0,.6-.4,1.21,1.21,0,0,0,.5-.5V18a9,9,0,0,0-1.8.2,10.38,10.38,0,0,0-1.2.3,1.79,1.79,0,0,0-.7.5,1.45,1.45,0,0,0-.2.7,1.27,1.27,0,0,0,.1.6,1.38,1.38,0,0,0,.3.4.76.76,0,0,0,.5.2A1.27,1.27,0,0,0,91.8,21Z" transform="translate(-3 -4)"/><path class="cls-2" d="M98.1,22V13.3H99c.2,0,.3,0,.3.1a.37.37,0,0,1,.1.3l.1,1.3a3.88,3.88,0,0,1,1-1.4,2.46,2.46,0,0,1,1.5-.5.75.75,0,0,1,.5.1c.2,0,.3.1.5.2l-.1,1.1c0,.1-.1.2-.3.2a.76.76,0,0,1-.4-.1c-.2,0-.3-.1-.5-.1a1.48,1.48,0,0,0-.7.1,2.09,2.09,0,0,0-.6.4c-.2.2-.3.4-.5.6a5.94,5.94,0,0,0-.4.8V22Z" transform="translate(-3 -4)"/></svg>