<?xml version="1.0" encoding="utf-8"?>
<!-- Generator: Adobe Illustrator 21.0.1, SVG Export Plug-In . SVG Version: 6.00 Build 0)  -->
<svg version="1.1" id="Layer_1" xmlns="http://www.w3.org/2000/svg" xmlns:xlink="http://www.w3.org/1999/xlink" x="0px" y="0px"
	 viewBox="0 0 105 35" style="enable-background:new 0 0 105 35;" xml:space="preserve">
<style type="text/css">
	.st0{fill:#FFFFFF;}
	.st1{fill:#3B3B3D;}
	.st2{fill:#F28F20;}
	.st3{fill:#222121;}
	.st4{fill:#F7F8F9;}
	.st5{fill:#414143;}
</style>
<g>
	<circle class="st0" cx="16.9" cy="17.9" r="13.9"/>
	<g>
		<path class="st1" d="M16.9,20.1c0,0-0.7,2.3-3.2,2.7c0,0,4.3,2.3,4.7,3.3c0,0-0.8-2.5,1-3.7c1.9-1.2,1.3-1.8,1.8-2.4
			c0.5-0.5,0.8-1.3,2.4-1.2s0.9-1.8,0.3-1.7c0,0-0.2-0.1,0-0.4c0,0,0.4-0.6-0.1-0.5l-0.1,0l0.1-0.3c0,0,0.3-0.5-0.4-0.3l-0.4,0
			l-0.2-0.1l0-0.9c0,0,0.1-0.3-0.3-0.3c-0.3,0-1.2,0-1.2,0s-0.5-0.1-0.6-0.3c-0.1-0.2-1.3-1.9-2.8-2c0,0-0.4-1.1-0.4-1.1s0,0,0,0
			l0,4.1L16.9,20.1z"/>
		<path class="st2" d="M16.6,20.2c0,0-0.6,1.8-3,0c0,0-0.8,2.3-2.4-0.1c0,0-1.3-0.3-0.7-1.6c0,0-1.6-1.2,0.3-1.9
			c0,0-0.1-0.7,0.8-0.6c0,0-1.1-1.7,0.5-2c0,0,0,0,0,0c0,0,0-1,1-0.7c0,0,0.7,0.1,0.9-0.1c0.2-0.2-0.2-1.2,1.2-1
			c0,0,0.1-1.2,0.5-1.5l0.1,4.5l0,4.4L16.6,20.2z"/>
		<circle class="st0" cx="16.9" cy="17.6" r="2.5"/>
		<circle class="st3" cx="16.9" cy="17.6" r="1.9"/>
		<circle class="st4" cx="16.9" cy="17.6" r="1.4"/>
		<circle class="st2" cx="16.9" cy="17.6" r="1.1"/>
		<g>
			<ellipse class="st0" cx="12.5" cy="15.6" rx="0.6" ry="0.6"/>
		</g>
		<g>
			<ellipse class="st0" cx="13.9" cy="14.3" rx="0.4" ry="0.4"/>
		</g>
		<g>
			<ellipse class="st0" cx="13.7" cy="16.7" rx="0.3" ry="0.3"/>
		</g>
		<g>
			<ellipse class="st0" cx="12.8" cy="17.9" rx="0.3" ry="0.3"/>
		</g>
		<g>
			<ellipse class="st0" cx="15.3" cy="14.6" rx="0.3" ry="0.3"/>
		</g>
		<g>
			<ellipse class="st2" cx="11.4" cy="13.6" rx="0.3" ry="0.3"/>
		</g>
		<g>
			<ellipse class="st2" cx="8.6" cy="14.6" rx="0.4" ry="0.4"/>
		</g>
		<g>
			<ellipse class="st2" cx="10.1" cy="14.1" rx="0.3" ry="0.3"/>
		</g>
		<g>
			<ellipse class="st2" cx="10.4" cy="15.6" rx="0.3" ry="0.3"/>
		</g>
		<g>
			<ellipse class="st2" cx="11.9" cy="12.4" rx="0.3" ry="0.3"/>
		</g>
		<path class="st5" d="M21.2,14.3c0,0,0.4-0.1,0.7-0.5c0,0-0.5,0.7-0.7,0.6C21,14.4,21.2,14.3,21.2,14.3z"/>
	</g>
	<rect x="37.1" y="4.1" class="st0" width="0.4" height="26.3"/>
	<g>
		<path class="st0" d="M54.8,11.6c-0.1,0.1-0.1,0.2-0.2,0.2c-0.1,0-0.1,0.1-0.2,0.1c-0.1,0-0.2,0-0.3-0.1c-0.1-0.1-0.3-0.2-0.5-0.3
			c-0.2-0.1-0.4-0.2-0.7-0.3c-0.3-0.1-0.6-0.1-1-0.1c-0.4,0-0.7,0.1-1,0.2c-0.3,0.1-0.5,0.2-0.7,0.4c-0.2,0.2-0.3,0.4-0.4,0.6
			c-0.1,0.2-0.1,0.5-0.1,0.8c0,0.3,0.1,0.6,0.3,0.9c0.2,0.2,0.4,0.4,0.7,0.6c0.3,0.2,0.6,0.3,0.9,0.4c0.4,0.1,0.7,0.2,1.1,0.4
			c0.4,0.1,0.7,0.3,1.1,0.4c0.4,0.2,0.7,0.4,0.9,0.6c0.3,0.2,0.5,0.5,0.7,0.9c0.2,0.3,0.3,0.8,0.3,1.3c0,0.5-0.1,1-0.3,1.5
			c-0.2,0.5-0.5,0.9-0.8,1.2c-0.4,0.3-0.8,0.6-1.3,0.8c-0.5,0.2-1.1,0.3-1.7,0.3c-0.8,0-1.5-0.1-2.2-0.4c-0.7-0.3-1.2-0.7-1.7-1.2
			l0.5-0.8c0-0.1,0.1-0.1,0.2-0.2c0.1,0,0.1-0.1,0.2-0.1c0.1,0,0.2,0,0.3,0.1c0.1,0.1,0.2,0.1,0.3,0.2c0.1,0.1,0.3,0.2,0.4,0.3
			c0.2,0.1,0.3,0.2,0.5,0.3c0.2,0.1,0.4,0.2,0.7,0.2c0.3,0.1,0.5,0.1,0.8,0.1c0.4,0,0.7-0.1,1.1-0.2c0.3-0.1,0.6-0.3,0.8-0.5
			c0.2-0.2,0.4-0.4,0.5-0.7c0.1-0.3,0.2-0.6,0.2-0.9c0-0.4-0.1-0.7-0.3-0.9c-0.2-0.2-0.4-0.4-0.7-0.6c-0.3-0.2-0.6-0.3-0.9-0.4
			s-0.7-0.2-1.1-0.3c-0.4-0.1-0.7-0.3-1.1-0.4c-0.4-0.2-0.7-0.4-0.9-0.6c-0.3-0.2-0.5-0.6-0.7-0.9c-0.2-0.4-0.3-0.8-0.3-1.4
			c0-0.4,0.1-0.9,0.3-1.3c0.2-0.4,0.4-0.8,0.7-1.1c0.3-0.3,0.7-0.6,1.2-0.8c0.5-0.2,1-0.3,1.6-0.3c0.7,0,1.3,0.1,1.9,0.3
			c0.6,0.2,1.1,0.5,1.5,0.9L54.8,11.6z"/>
		<path class="st0" d="M57.3,22V9.3h1.5v5.1c0.4-0.4,0.8-0.7,1.2-0.9c0.5-0.2,1-0.4,1.6-0.4c0.5,0,0.9,0.1,1.3,0.2
			c0.4,0.2,0.7,0.4,0.9,0.7c0.2,0.3,0.4,0.6,0.6,1c0.1,0.4,0.2,0.9,0.2,1.3V22H63v-5.5c0-0.7-0.2-1.2-0.5-1.5
			c-0.3-0.4-0.8-0.5-1.4-0.5c-0.5,0-0.9,0.1-1.3,0.3c-0.4,0.2-0.8,0.5-1.1,0.9V22H57.3z"/>
		<path class="st0" d="M72.4,22c-0.1,0-0.3,0-0.3-0.1c-0.1,0-0.1-0.1-0.2-0.3l-0.2-0.8c-0.2,0.2-0.5,0.4-0.7,0.6s-0.4,0.3-0.7,0.4
			c-0.2,0.1-0.5,0.2-0.8,0.3c-0.3,0.1-0.6,0.1-0.9,0.1c-0.3,0-0.7,0-1-0.1c-0.3-0.1-0.6-0.2-0.8-0.4c-0.2-0.2-0.4-0.4-0.5-0.7
			c-0.1-0.3-0.2-0.6-0.2-1c0-0.3,0.1-0.7,0.3-1c0.2-0.3,0.5-0.6,0.9-0.8c0.4-0.2,1-0.4,1.7-0.6s1.5-0.2,2.5-0.3v-0.7
			c0-0.7-0.1-1.2-0.4-1.5c-0.3-0.3-0.7-0.5-1.3-0.5c-0.4,0-0.7,0-0.9,0.1c-0.3,0.1-0.5,0.2-0.7,0.3c-0.2,0.1-0.3,0.2-0.5,0.3
			c-0.1,0.1-0.3,0.1-0.4,0.1c-0.1,0-0.2,0-0.3-0.1C67.1,15.1,67,15.1,67,15l-0.3-0.5c0.5-0.5,1-0.8,1.6-1s1.2-0.3,1.8-0.3
			c0.5,0,0.9,0.1,1.3,0.2c0.4,0.2,0.7,0.4,1,0.7c0.3,0.3,0.5,0.6,0.6,1c0.1,0.4,0.2,0.9,0.2,1.3V22H72.4z M69.2,21
			c0.3,0,0.5,0,0.7-0.1c0.2-0.1,0.4-0.1,0.6-0.2c0.2-0.1,0.4-0.2,0.6-0.4c0.2-0.1,0.4-0.3,0.5-0.5v-1.8c-0.7,0-1.3,0.1-1.8,0.2
			c-0.5,0.1-0.9,0.2-1.2,0.3c-0.3,0.1-0.5,0.3-0.7,0.5c-0.1,0.2-0.2,0.4-0.2,0.7c0,0.2,0,0.4,0.1,0.6c0.1,0.2,0.2,0.3,0.3,0.4
			c0.1,0.1,0.3,0.2,0.5,0.2C68.8,21,69,21,69.2,21z"/>
		<path class="st0" d="M75.4,22v-8.7h0.9c0.2,0,0.4,0.1,0.4,0.3l0.1,0.9c0.3-0.4,0.7-0.7,1.1-1c0.4-0.3,0.9-0.4,1.4-0.4
			c0.6,0,1.1,0.2,1.4,0.5c0.4,0.3,0.6,0.8,0.8,1.3c0.1-0.3,0.3-0.6,0.5-0.8c0.2-0.2,0.4-0.4,0.7-0.6c0.2-0.1,0.5-0.3,0.8-0.3
			s0.6-0.1,0.8-0.1c0.5,0,0.9,0.1,1.2,0.2c0.4,0.1,0.7,0.4,0.9,0.6c0.2,0.3,0.4,0.6,0.6,1c0.1,0.4,0.2,0.9,0.2,1.4V22h-1.5v-5.5
			c0-0.7-0.1-1.2-0.4-1.5c-0.3-0.4-0.7-0.5-1.3-0.5c-0.3,0-0.5,0-0.7,0.1c-0.2,0.1-0.4,0.2-0.6,0.4c-0.2,0.2-0.3,0.4-0.4,0.6
			c-0.1,0.3-0.2,0.6-0.2,0.9V22h-1.5v-5.5c0-0.7-0.1-1.2-0.4-1.6c-0.3-0.3-0.7-0.5-1.2-0.5c-0.4,0-0.7,0.1-1,0.3
			c-0.3,0.2-0.6,0.5-0.9,0.8V22H75.4z"/>
		<path class="st0" d="M95.1,22c-0.1,0-0.3,0-0.3-0.1c-0.1,0-0.1-0.1-0.2-0.3l-0.2-0.8c-0.2,0.2-0.5,0.4-0.7,0.6s-0.4,0.3-0.7,0.4
			c-0.2,0.1-0.5,0.2-0.8,0.3c-0.3,0.1-0.6,0.1-0.9,0.1c-0.3,0-0.7,0-1-0.1c-0.3-0.1-0.6-0.2-0.8-0.4c-0.2-0.2-0.4-0.4-0.5-0.7
			c-0.1-0.3-0.2-0.6-0.2-1c0-0.3,0.1-0.7,0.3-1c0.2-0.3,0.5-0.6,0.9-0.8c0.4-0.2,1-0.4,1.7-0.6c0.7-0.2,1.5-0.2,2.5-0.3v-0.7
			c0-0.7-0.1-1.2-0.4-1.5c-0.3-0.3-0.7-0.5-1.3-0.5c-0.4,0-0.7,0-0.9,0.1c-0.3,0.1-0.5,0.2-0.7,0.3c-0.2,0.1-0.3,0.2-0.5,0.3
			c-0.1,0.1-0.3,0.1-0.4,0.1c-0.1,0-0.2,0-0.3-0.1c-0.1-0.1-0.1-0.1-0.2-0.2l-0.3-0.5c0.5-0.5,1-0.8,1.6-1s1.2-0.3,1.8-0.3
			c0.5,0,0.9,0.1,1.3,0.2c0.4,0.2,0.7,0.4,1,0.7c0.3,0.3,0.5,0.6,0.6,1c0.1,0.4,0.2,0.9,0.2,1.3V22H95.1z M91.8,21
			c0.3,0,0.5,0,0.7-0.1c0.2-0.1,0.4-0.1,0.6-0.2c0.2-0.1,0.4-0.2,0.6-0.4c0.2-0.1,0.4-0.3,0.5-0.5v-1.8c-0.7,0-1.3,0.1-1.8,0.2
			c-0.5,0.1-0.9,0.2-1.2,0.3c-0.3,0.1-0.5,0.3-0.7,0.5c-0.1,0.2-0.2,0.4-0.2,0.7c0,0.2,0,0.4,0.1,0.6c0.1,0.2,0.2,0.3,0.3,0.4
			c0.1,0.1,0.3,0.2,0.5,0.2C91.4,21,91.6,21,91.8,21z"/>
		<path class="st0" d="M98.1,22v-8.7H99c0.2,0,0.3,0,0.3,0.1c0.1,0.1,0.1,0.2,0.1,0.3l0.1,1.3c0.3-0.6,0.6-1.1,1-1.4
			c0.4-0.3,0.9-0.5,1.5-0.5c0.2,0,0.4,0,0.5,0.1c0.2,0,0.3,0.1,0.5,0.2l-0.1,1.1c0,0.1-0.1,0.2-0.3,0.2c-0.1,0-0.2,0-0.4-0.1
			c-0.2,0-0.3-0.1-0.5-0.1c-0.3,0-0.5,0-0.7,0.1c-0.2,0.1-0.4,0.2-0.6,0.4c-0.2,0.2-0.3,0.4-0.5,0.6c-0.1,0.2-0.3,0.5-0.4,0.8V22
			H98.1z"/>
	</g>
</g>
</svg>
